<?xml version="1.0" encoding="UTF-8" standalone="no"?>
<!-- Created with Inkscape (http://www.inkscape.org/) -->

<svg
   xmlns:dc="http://purl.org/dc/elements/1.1/"
   xmlns:cc="http://creativecommons.org/ns#"
   xmlns:rdf="http://www.w3.org/1999/02/22-rdf-syntax-ns#"
   xmlns:svg="http://www.w3.org/2000/svg"
   xmlns="http://www.w3.org/2000/svg"
   xmlns:sodipodi="http://sodipodi.sourceforge.net/DTD/sodipodi-0.dtd"
   xmlns:inkscape="http://www.inkscape.org/namespaces/inkscape"
   id="svg64"
   version="1.1"
   inkscape:version="0.48.2 r9819"
   width="256"
   height="256"
   sodipodi:docname="o.svg">
  <metadata
     id="metadata70">
    <rdf:RDF>
      <cc:Work
         rdf:about="">
        <dc:format>image/svg+xml</dc:format>
        <dc:type
           rdf:resource="http://purl.org/dc/dcmitype/StillImage" />
        <dc:title />
      </cc:Work>
    </rdf:RDF>
  </metadata>
  <defs
     id="defs68" />
  <sodipodi:namedview
     pagecolor="#ffffff"
     bordercolor="#666666"
     borderopacity="1"
     objecttolerance="10"
     gridtolerance="10"
     guidetolerance="10"
     inkscape:pageopacity="0"
     inkscape:pageshadow="2"
     inkscape:window-width="1440"
     inkscape:window-height="856"
     id="namedview66"
     showgrid="false"
     inkscape:zoom="1.5975"
     inkscape:cx="263.8345"
     inkscape:cy="105.54862"
     inkscape:window-x="0"
     inkscape:window-y="0"
     inkscape:window-maximized="0"
     inkscape:current-layer="svg64" />
  <path
     style="fill:#cb4437;fill-opacity:1"
     d="m 124.2267,227.40974 c -11.49556,-0.24677 -23.135,-2.14012 -33.270256,-5.41196 C 56.582122,210.90112 34.331837,183.45077 29.146681,145.74257 27.990966,137.33785 27.66581,125.2086 28.368821,116.72606 30.941066,85.689188 44.299907,60.984517 66.801333,45.652322 84.932305,33.298102 107.0667,27.691954 133.87353,28.664431 c 23.66059,0.858336 44.68025,8.059794 60.69162,20.793284 3.51376,2.79441 10.33876,9.657519 13.16898,13.242496 11.39015,14.427708 18.14757,32.52337 19.94775,53.418159 0.42148,4.89215 0.42484,17.03544 0.006,21.72443 -2.46054,27.54689 -13.32897,50.36963 -31.45163,66.04568 -18.6844,16.16199 -43.11359,24.14155 -72.00956,23.52126 z m 10.93815,-46.39928 c 16.62171,-2.56615 27.60338,-13.65269 32.36943,-32.67848 2.36216,-9.42967 2.81043,-25.11304 1.02063,-35.70774 -3.35117,-19.837073 -13.48561,-33.081348 -28.52865,-37.282931 -7.0886,-1.979879 -16.78964,-1.961325 -23.94256,0.04582 -8.71764,2.446171 -15.83518,7.604659 -20.896025,15.144552 -2.627357,3.914362 -4.206043,7.206589 -5.906432,12.317409 -2.717053,8.16657 -3.630616,15.32432 -3.399916,26.63819 0.101032,4.95445 0.338995,8.89811 0.660037,10.93817 3.714748,23.60548 15.279716,37.32652 34.191196,40.56553 3.08901,0.52904 11.06201,0.53983 14.43229,0.0194 z"
     id="path74"
     inkscape:connector-curvature="0" />
</svg>
