<?xml version="1.0" encoding="UTF-8" standalone="no"?>
<!-- Created with Inkscape (http://www.inkscape.org/) -->

<svg
   xmlns:dc="http://purl.org/dc/elements/1.1/"
   xmlns:cc="http://creativecommons.org/ns#"
   xmlns:rdf="http://www.w3.org/1999/02/22-rdf-syntax-ns#"
   xmlns:svg="http://www.w3.org/2000/svg"
   xmlns="http://www.w3.org/2000/svg"
   xmlns:sodipodi="http://sodipodi.sourceforge.net/DTD/sodipodi-0.dtd"
   xmlns:inkscape="http://www.inkscape.org/namespaces/inkscape"
   version="1.1"
   width="256"
   height="256"
   id="svg165"
   inkscape:version="0.48.2 r9819"
   sodipodi:docname="x.svg">
  <sodipodi:namedview
     pagecolor="#ffffff"
     bordercolor="#666666"
     borderopacity="1"
     objecttolerance="10"
     gridtolerance="10"
     guidetolerance="10"
     inkscape:pageopacity="0"
     inkscape:pageshadow="2"
     inkscape:window-width="1440"
     inkscape:window-height="852"
     id="namedview3033"
     showgrid="false"
     showborder="true"
     fit-margin-top="0"
     fit-margin-left="0"
     fit-margin-right="0"
     fit-margin-bottom="0"
     inkscape:zoom="1.5875"
     inkscape:cx="131.74428"
     inkscape:cy="110.46335"
     inkscape:window-x="0"
     inkscape:window-y="0"
     inkscape:window-maximized="1"
     inkscape:current-layer="svg165" />
  <metadata
     id="metadata171">
    <rdf:RDF>
      <cc:Work
         rdf:about="">
        <dc:format>image/svg+xml</dc:format>
        <dc:type
           rdf:resource="http://purl.org/dc/dcmitype/StillImage" />
        <dc:title />
      </cc:Work>
    </rdf:RDF>
  </metadata>
  <defs
     id="defs169" />
  <path
     d="m 17.787592,224.8033 c 3.83017,-4.44974 11.569089,-14.1174 15.681609,-19.5899 1.897172,-2.52455 15.947787,-22.18452 31.223587,-43.68881 L 92.466959,122.42585 68.966423,89.558409 C 44.823704,55.792815 42.205793,52.233885 30.257776,36.935749 l -6.97888,-8.935697 37.050294,0.08337 37.050294,0.08337 1.911433,4.426166 c 2.115143,4.897874 5.067813,10.912266 6.840793,13.934226 1.89065,3.222524 22.13188,33.606071 22.38804,33.606071 0.30022,0 19.4897,-29.424054 22.39724,-34.342639 2.58076,-4.365794 5.73215,-10.563962 7.46034,-14.673047 l 1.24104,-2.950777 36.71763,-0.08339 36.71765,-0.08337 -4.648,5.823309 c -8.96303,11.22938 -18.65175,24.454139 -41.3123,56.389917 l -22.85571,32.210842 24.6431,34.83737 c 33.61117,47.51533 33.71025,47.6513 45.75603,62.7878 l 6.32723,7.9507 -37.96507,0 -37.96509,0 -3.65799,-7.29497 c -2.0119,-4.01223 -5.08448,-9.72685 -6.82794,-12.69915 -3.6225,-6.17573 -26.00715,-40.9886 -26.3556,-40.9886 -0.3582,0 -23.37715,36.27957 -26.572,41.87947 -1.5673,2.74714 -4.434478,8.16919 -6.371515,12.04902 l -3.521893,7.05423 -38.34545,0 -38.34545,0 2.75159,-3.19666 z"
     id="path175"
     style="fill:#000000"
     inkscape:connector-curvature="0" />
</svg>
