<?xml version="1.0" encoding="UTF-8" standalone="no"?>
<!-- Created with Inkscape (http://www.inkscape.org/) -->

<svg
   xmlns:dc="http://purl.org/dc/elements/1.1/"
   xmlns:cc="http://creativecommons.org/ns#"
   xmlns:rdf="http://www.w3.org/1999/02/22-rdf-syntax-ns#"
   xmlns:svg="http://www.w3.org/2000/svg"
   xmlns="http://www.w3.org/2000/svg"
   xmlns:sodipodi="http://sodipodi.sourceforge.net/DTD/sodipodi-0.dtd"
   xmlns:inkscape="http://www.inkscape.org/namespaces/inkscape"
   width="26.879999"
   height="26.879999"
   id="svg3079"
   version="1.1"
   inkscape:version="0.48.2 r9819"
   sodipodi:docname="ic_launcher.svg">
  <defs
     id="defs3081" />
  <sodipodi:namedview
     id="base"
     pagecolor="#ffffff"
     bordercolor="#666666"
     borderopacity="1.0"
     inkscape:pageopacity="0.0"
     inkscape:pageshadow="2"
     inkscape:zoom="15.839192"
     inkscape:cx="19.465646"
     inkscape:cy="16.59858"
     inkscape:document-units="px"
     inkscape:current-layer="layer1"
     showgrid="false"
     inkscape:window-width="1440"
     inkscape:window-height="852"
     inkscape:window-x="0"
     inkscape:window-y="0"
     inkscape:window-maximized="1" />
  <metadata
     id="metadata3084">
    <rdf:RDF>
      <cc:Work
         rdf:about="">
        <dc:format>image/svg+xml</dc:format>
        <dc:type
           rdf:resource="http://purl.org/dc/dcmitype/StillImage" />
        <dc:title></dc:title>
      </cc:Work>
    </rdf:RDF>
  </metadata>
  <g
     inkscape:label="Layer 1"
     inkscape:groupmode="layer"
     id="layer1"
     transform="translate(0,-1025.4822)">
    <path
       inkscape:connector-curvature="0"
       id="path74"
       d="m 6.4441556,1038.0855 c -0.689745,-0.015 -1.388124,-0.1284 -1.99625,-0.3247 -2.062495,-0.6658 -3.397534,-2.3128 -3.708649,-4.5754 -0.06935,-0.5043 -0.08885,-1.232 -0.04667,-1.741 0.154337,-1.8623 0.955881,-3.3446 2.30599,-4.2645 1.087877,-0.7413 2.415963,-1.0776 4.024401,-1.0193 1.41966,0.052 2.6808621,0.4836 3.6415604,1.2476 0.210829,0.1677 0.620336,0.5795 0.790153,0.7946 0.683421,0.8657 1.088872,1.9514 1.196885,3.2051 0.02529,0.2936 0.02549,1.0222 3.55e-4,1.3035 -0.147635,1.6529 -0.799752,3.0222 -1.88713,3.9629 -1.1210843,0.9697 -2.5868604,1.4485 -4.3206494,1.4112 z m 0.656301,-2.784 c 0.997319,-0.1539 1.656231,-0.8192 1.9421978,-1.9607 0.141733,-0.5658 0.16863,-1.5068 0.06124,-2.1425 -0.201073,-1.1902 -0.8091498,-1.9849 -1.7117478,-2.237 -0.425324,-0.1188 -1.007396,-0.1177 -1.436579,0 -0.523067,0.1467 -0.950127,0.4563 -1.253782,0.9087 -0.157645,0.2349 -0.252367,0.4324 -0.354392,0.739 -0.163026,0.4901 -0.217841,0.9195 -0.203999,1.5984 0.0061,0.2972 0.02034,0.5339 0.0396,0.6563 0.222889,1.4163 0.916799,2.2396 2.051507,2.4339 0.185343,0.032 0.663732,0.032 0.865953,0 z"
       style="fill:#cb4437;fill-opacity:1;stroke:#ffffff;stroke-width:0.30000001;stroke-miterlimit:4;stroke-opacity:1;stroke-dasharray:none" />
    <path
       d="m 0.85448602,1050.8362 c 0.20343998,-0.2363 0.61449498,-0.7498 0.83293198,-1.0405 0.100768,-0.1341 0.847069,-1.1783 1.658446,-2.3205 l 1.47523,-2.0768 -1.248235,-1.7457 c -1.282345,-1.7935 -1.421396,-1.9825 -2.056017,-2.7951 l -0.370684,-0.4746 1.967933,0.01 1.967933,0.01 0.101526,0.2351 c 0.112346,0.2601 0.269178,0.5796 0.36335,0.7401 0.100422,0.1711 1.175538,1.785 1.189145,1.785 0.01595,0 1.035199,-1.5629 1.189633,-1.8241 0.137078,-0.2319 0.304465,-0.5611 0.396258,-0.7794 l 0.06592,-0.1567 1.950263,-0.01 1.950265,-0.01 -0.24688,0.3093 c -0.476073,0.5964 -0.990692,1.2989 -2.1943099,2.9952 l -1.2139851,1.7109 1.3089221,1.8504 c 1.7852639,2.5238 1.7905259,2.531 2.4303399,3.335 l 0.336072,0.4222 -2.016522,0 -2.0165212,0 -0.1942948,-0.3874 c -0.106863,-0.2132 -0.270063,-0.5166 -0.362667,-0.6746 -0.192411,-0.328 -1.381375,-2.1771 -1.399884,-2.1771 -0.01903,0 -1.241681,1.9271 -1.411376,2.2245 -0.08325,0.1459 -0.235538,0.4339 -0.338424,0.6399 l -0.187066,0.3747 -2.036725,0 -2.03672598,0 0.146151,-0.1698 z"
       id="path4229"
       style="fill:#000000;fill-opacity:1;stroke:#ffffff;stroke-width:0.30000001;stroke-miterlimit:4;stroke-opacity:1;stroke-dasharray:none"
       inkscape:connector-curvature="0" />
    <path
       style="fill:#cb4437;fill-opacity:1;stroke:#ffffff;stroke-width:0.30000001;stroke-miterlimit:4;stroke-opacity:1;stroke-dasharray:none"
       d="m 20.018081,1051.6596 c -0.689745,-0.015 -1.388124,-0.1284 -1.99625,-0.3247 -2.062495,-0.6658 -3.397534,-2.3128 -3.708649,-4.5754 -0.06935,-0.5043 -0.08885,-1.232 -0.04667,-1.741 0.154337,-1.8623 0.955881,-3.3446 2.30599,-4.2645 1.087877,-0.7413 2.415963,-1.0776 4.024401,-1.0193 1.41966,0.052 2.680862,0.4836 3.64156,1.2476 0.210829,0.1677 0.620336,0.5795 0.790153,0.7946 0.683421,0.8657 1.088872,1.9514 1.196885,3.2051 0.02529,0.2936 0.02549,1.0222 3.55e-4,1.3035 -0.147635,1.6529 -0.799752,3.0222 -1.88713,3.9629 -1.121084,0.9697 -2.58686,1.4485 -4.320649,1.4112 z m 0.656301,-2.784 c 0.997319,-0.1539 1.656231,-0.8192 1.942198,-1.9607 0.141733,-0.5658 0.16863,-1.5068 0.06124,-2.1425 -0.201073,-1.1902 -0.80915,-1.9849 -1.711748,-2.237 -0.425324,-0.1188 -1.007396,-0.1177 -1.436579,0 -0.523067,0.1467 -0.950127,0.4563 -1.253782,0.9087 -0.157645,0.2349 -0.252367,0.4324 -0.354392,0.739 -0.163026,0.4901 -0.217841,0.9195 -0.203999,1.5984 0.0061,0.2972 0.02034,0.5339 0.0396,0.6563 0.222889,1.4163 0.916799,2.2396 2.051507,2.4339 0.185343,0.032 0.663732,0.032 0.865953,0 z"
       id="path4233"
       inkscape:connector-curvature="0" />
    <path
       inkscape:connector-curvature="0"
       style="fill:#000000;fill-opacity:1;stroke:#ffffff;stroke-width:0.30000001;stroke-miterlimit:4;stroke-opacity:1;stroke-dasharray:none"
       id="path4235"
       d="m 14.302142,1037.3254 c 0.20344,-0.2363 0.614495,-0.7498 0.832932,-1.0405 0.100768,-0.1341 0.847069,-1.1783 1.658446,-2.3205 l 1.47523,-2.0768 -1.248235,-1.7457 c -1.282345,-1.7935 -1.421396,-1.9825 -2.056017,-2.7951 l -0.370684,-0.4746 1.967933,0.01 1.967933,0.01 0.101526,0.2351 c 0.112346,0.2601 0.269178,0.5796 0.36335,0.7401 0.100422,0.1711 1.175538,1.785 1.189145,1.785 0.01595,0 1.035199,-1.5629 1.189633,-1.8241 0.137078,-0.2319 0.304465,-0.5611 0.396258,-0.7794 l 0.06592,-0.1567 1.950263,-0.01 1.950265,-0.01 -0.24688,0.3093 c -0.476073,0.5964 -0.990692,1.2989 -2.19431,2.9952 l -1.213985,1.7109 1.308922,1.8504 c 1.785264,2.5238 1.790526,2.531 2.43034,3.335 l 0.336072,0.4222 -2.016522,0 -2.016521,0 -0.194295,-0.3874 c -0.106863,-0.2132 -0.270063,-0.5166 -0.362667,-0.6746 -0.192411,-0.328 -1.381375,-2.1771 -1.399884,-2.1771 -0.01903,0 -1.241681,1.9271 -1.411376,2.2245 -0.08325,0.1459 -0.235538,0.4339 -0.338424,0.6399 l -0.187066,0.3747 -2.036725,0 -2.036726,0 0.146151,-0.1698 z" />
  </g>
</svg>
