<?xml version="1.0" encoding="UTF-8" standalone="no"?>
<svg
   xmlns:dc="http://purl.org/dc/elements/1.1/"
   xmlns:cc="http://creativecommons.org/ns#"
   xmlns:rdf="http://www.w3.org/1999/02/22-rdf-syntax-ns#"
   xmlns:svg="http://www.w3.org/2000/svg"
   xmlns="http://www.w3.org/2000/svg"
   xmlns:sodipodi="http://sodipodi.sourceforge.net/DTD/sodipodi-0.dtd"
   xmlns:inkscape="http://www.inkscape.org/namespaces/inkscape"
   version="1.1"
   width="135"
   height="31.084339"
   id="svg3039"
   inkscape:version="0.48.2 r9819"
   sodipodi:docname="logo.svg">
  <sodipodi:namedview
     pagecolor="#ffffff"
     bordercolor="#666666"
     borderopacity="1"
     objecttolerance="10"
     gridtolerance="10"
     guidetolerance="10"
     inkscape:pageopacity="0"
     inkscape:pageshadow="2"
     inkscape:window-width="1499"
     inkscape:window-height="841"
     id="namedview3053"
     showgrid="false"
     fit-margin-top="0"
     fit-margin-left="0"
     fit-margin-right="0"
     fit-margin-bottom="0"
     inkscape:zoom="6.1744674"
     inkscape:cx="68.046079"
     inkscape:cy="12.854462"
     inkscape:window-x="715"
     inkscape:window-y="401"
     inkscape:window-maximized="0"
     inkscape:current-layer="svg3039" />
  <metadata
     id="metadata3045">
    <rdf:RDF>
      <cc:Work
         rdf:about="">
        <dc:format>image/svg+xml</dc:format>
        <dc:type
           rdf:resource="http://purl.org/dc/dcmitype/StillImage" />
        <dc:title />
      </cc:Work>
    </rdf:RDF>
  </metadata>
  <defs
     id="defs3043" />
  <g
     transform="matrix(0.07626954,0,0,0.07626954,-3.2865515,-11.589372)"
     id="layer1"
     style="display:inline">
    <path
       d="m 946.19126,558.91147 c -27.78317,-2.67693 -50.92721,-10.36548 -70.59493,-23.45193 -7.91865,-5.26889 -22.46695,-17.89917 -22.46695,-19.50496 0,-0.70408 49.65214,-34.13967 54.74635,-36.86601 1.59088,-0.85141 3.02739,0.0829 9.09737,5.91692 8.45237,8.12381 21.39356,14.99353 33.24301,17.64676 11.12118,2.49017 33.02804,2.21707 43.22722,-0.53889 15.73317,-4.2513 26.87567,-12.90678 32.70087,-25.40201 3.0692,-6.58352 6.3184,-22.42242 5.7937,-28.24294 l -0.3085,-3.42288 -6.995,5.42894 c -19.8025,15.36919 -46.89642,22.23902 -76.98232,19.51934 -54.21168,-4.90058 -88.62768,-35.96134 -99.21339,-89.54099 -2.51886,-12.74925 -2.52701,-43.60075 -0.0147,-55.5 5.38742,-25.5165 14.95827,-44.30433 30.31822,-59.51547 20.90436,-20.70185 47.1656,-30.55685 81.49731,-30.58331 26.43282,-0.0204 45.59318,5.16846 64.38978,17.43753 l 7,4.56908 0.5,-8.20392 0.5,-8.20391 38.8948,-0.26188 38.8947,-0.26188 -0.6946,7.26188 c -1.9816,20.71634 -2.5253,46.59842 -2.5584,121.78811 -0.022,49.66765 -0.4427,85.90015 -1.0568,91 -2.6949,22.38045 -8.7366,39.87595 -18.9841,54.97377 -4.6621,6.86874 -16.9719,18.64406 -24.5742,23.50722 -13.9087,8.89723 -33.7958,15.55366 -56.9214,19.0522 -12.15332,1.83861 -46.48878,2.6469 -59.43808,1.39923 z"
       id="path3871"
       style="fill:#000000;display:inline"
       inkscape:connector-curvature="0" />
    <path
       d="m 988.02627,411.41538 c 19.63373,-4.62807 35.15053,-20.45523 40.64963,-41.46256 2.2817,-8.71649 2.284,-26.26839 0.01,-35 -5.8551,-22.4293 -21.4443,-38.11544 -42.26435,-42.52715 -27.73061,-5.87606 -52.05684,8.48049 -60.91279,35.94874 -3.5351,10.96471 -4.37095,28.52228 -1.93491,40.64413 4.35016,21.64664 17.91093,37.30793 36.67317,42.35373 7.08423,1.90519 19.80133,1.92492 27.78456,0.0431 z"
       id="path3869"
       style="fill:#ffffff;fill-opacity:1;display:inline"
       inkscape:connector-curvature="0" />
    <path
       d="m 414.62938,491.39632 c -55.39195,-8.25711 -92.1767,-42.23012 -103.88416,-95.9435 -5.57443,-25.57524 -3.48731,-61.03201 4.98053,-84.61128 14.75721,-41.09244 46.66681,-67.40113 92.90363,-76.59678 13.99859,-2.78406 49.36426,-2.50138 63.18841,0.50507 51.9048,11.28816 84.5192,43.55263 95.44983,94.42574 2.60838,12.13986 3.60835,39.28339 1.91751,52.0498 -6.46414,48.80656 -33.18343,84.87282 -75.35767,101.71935 -22.34284,8.92486 -53.62725,12.26337 -79.19808,8.4516 z"
       id="path3867"
       style="fill:#cb4437;fill-opacity:1;stroke:#cb4437;stroke-opacity:1;display:inline"
       inkscape:connector-curvature="0" />
    <path
       d="m 452.89854,431.44518 c 14.12163,-3.32946 25.94147,-12.94947 32.55043,-26.49236 12.98588,-26.61029 11.23279,-68.93093 -3.81102,-92 -5.07478,-7.78197 -8.11051,-10.72617 -15.85188,-15.37393 -6.98823,-4.1956 -16.8824,-6.63147 -26.8541,-6.61129 -29.16004,0.059 -48.69747,18.42806 -54.39967,51.14642 -2.19272,12.58146 -1.46939,34.9816 1.49634,46.3388 3.11125,11.91451 9.06446,23.24633 15.6969,29.87876 6.10677,6.10678 16.85688,12.06676 24.40384,13.52977 7.16223,1.38842 19.95892,1.18948 26.76916,-0.41617 z"
       id="path3865"
       style="fill:#ffffff;fill-opacity:1;stroke:#cb4437;stroke-opacity:1;display:inline"
       inkscape:connector-curvature="0" />
    <path
       d="m 1684.1294,490.88525 c -49.483,-2.59258 -83.8893,-20.94602 -98.6555,-52.62601 -3.7243,-7.99028 -8.7259,-25.38575 -7.5798,-26.36237 1.0911,-0.92982 77.1565,-9.11079 78.2762,-8.41876 0.5275,0.32601 0.9591,1.39431 0.9591,2.374 0,3.48372 6.1898,14.10732 10.239,17.57329 7.8562,6.72459 23.1228,10.25664 39.4592,9.12916 25.2471,-1.74246 37.1343,-12.97363 28.7942,-27.20498 -3.3615,-5.73594 -11.3355,-9.53056 -26.9924,-12.84504 -56.5063,-11.96206 -66.6783,-14.6608 -81,-21.49037 -17.8333,-8.50412 -26.4339,-16.36762 -32.9267,-30.10477 -4.432,-9.3772 -6.6634,-19.87963 -6.6999,-31.53487 -0.044,-14.09784 1.7797,-21.92084 7.8316,-33.59174 13.5834,-26.19523 45.9295,-41.60696 91.295,-43.49869 38.1283,-1.58993 68.8611,6.24583 89.7785,22.89036 12.3265,9.80846 20.2899,21.77197 26.2909,39.49694 l 2.7825,8.21857 -3.1759,0.51234 c -5.5219,0.89077 -69.05,7.56669 -71.926,7.55842 -2.1763,-0.006 -2.7546,-0.47731 -2.772,-2.25791 -0.033,-3.38338 -3.3594,-9.90651 -6.6019,-12.94639 -1.5819,-1.48301 -5.1261,-3.72322 -7.8761,-4.97825 -4.3774,-1.99773 -6.6187,-2.28441 -18,-2.30235 -14.7577,-0.0233 -21.4728,1.50144 -28.2572,6.41607 -6.929,5.01937 -7.5694,13.49966 -1.4613,19.35163 5.3368,5.11291 16.8554,8.56204 64.2185,19.22947 28.6651,6.45615 45.7888,13.24656 59.4128,23.56021 15.4964,11.73107 23.5872,29.43824 23.5872,51.62173 0,32.00918 -13.5832,54.40897 -41.3934,68.26095 -15.8387,7.88906 -34.9088,12.54633 -55.6066,13.5801 -5.775,0.28844 -12.3,0.65317 -14.5,0.8105 -2.2,0.15734 -10.075,-0.0322 -17.5,-0.42124 z"
       id="path3863"
       style="fill:#000000;display:inline"
       inkscape:connector-curvature="0" />
    <path
       d="m 1499.6294,489.87578 c -29.2484,-3.98727 -47.6852,-17.42861 -54.1771,-39.49782 -1.5702,-5.33772 -1.7766,-12.98893 -2.0822,-77.17514 l -0.3392,-71.25 -9.2008,0.004 c -10.0032,0.004 -36.1278,1.74976 -38.9507,2.60223 -1.6425,0.49601 -1.75,-1.54087 -1.75,-33.15554 l 0,-33.68403 2.25,0.68922 c 1.2375,0.37907 12.4875,0.94268 25,1.25246 l 22.75,0.56324 -0.021,-10.88583 c -0.022,-11.01585 -1.2664,-33.2682 -2.5527,-45.63582 l -0.7021,-6.75 40.7533,0 40.7533,0 -0.6263,5.25 c -1.2856,10.77536 -2.5868,33.65391 -2.5953,45.63222 l -0.01,12.38222 27,-0.45575 27,-0.45575 0,32.26452 c 0,17.74548 -0.3375,32.45379 -0.75,32.68514 -0.4125,0.23136 -3.45,0.0697 -6.75,-0.35932 -3.3,-0.42898 -15.1268,-1.11354 -26.2818,-1.52124 l -20.2819,-0.74129 0.2819,56.90963 c 0.2727,55.07423 0.3478,57.03862 2.3279,60.90962 1.5543,3.03845 3.4287,4.69659 7.7975,6.89778 5.1895,2.61472 6.699,2.89418 15.4538,2.86091 7.8733,-0.0299 11.1167,-0.53589 17.2026,-2.6836 4.125,-1.4557 8.2113,-2.88817 9.0808,-3.18328 1.3765,-0.46723 1.9434,3.20992 4.3874,28.45652 1.5436,15.9462 2.5587,29.6393 2.2556,30.42911 -0.5786,1.50776 -8.7836,3.86652 -22.2238,6.38883 -9.6775,1.81618 -44.9791,2.62279 -55,1.25669 z"
       id="path3861"
       style="fill:#000000;display:inline"
       inkscape:connector-curvature="0" />
    <path
       d="m 651.03804,488.46298 c -31.37545,-5.9462 -53.08174,-25.04318 -60.82149,-53.51016 -3.59693,-13.2296 -4.07009,-23.63178 -4.09379,-90 -0.0207,-57.9079 -0.64074,-81.44814 -2.61426,-99.25 l -0.63745,-5.75 41.75697,0 41.75698,0 -0.60144,3.76119 c -2.11059,13.19886 -2.75014,38.11066 -2.4322,94.73881 0.37778,67.28699 0.2764,66.06468 6.11456,73.71902 5.70332,7.47755 14.10802,10.99634 26.27534,11.00067 19.12898,0.007 38.29015,-11.66205 54.05135,-32.91646 l 5.33677,-7.19678 -0.0158,-54.80322 c -0.0142,-49.14161 -0.60997,-68.62771 -2.55494,-83.56441 l -0.61998,-4.76117 41.34538,0.26117 c 40.65783,0.25683 41.34247,0.29443 41.17076,2.26118 -2.03707,23.3327 -2.32529,38.3735 -2.32455,121.30447 7.4e-4,83.71747 0.54923,109.40402 2.51852,117.94553 l 0.51874,2.25 -40.07316,0 -40.07317,0 0.30411,-13.50168 c 0.16727,-7.42593 0.0791,-13.4947 -0.19588,-13.48615 -0.275,0.009 -3.425,2.51058 -7,5.56007 -15.04064,12.82974 -28.02684,19.76679 -46,24.57254 -10.08277,2.69598 -39.86999,3.49202 -51.09134,1.36538 z"
       id="path3859"
       style="fill:#000000;display:inline"
       inkscape:connector-curvature="0" />
    <path
       d="m 43.600256,481.70282 c 1.934205,-8.55029 2.504125,-36.65972 2.468488,-121.75 -0.02863,-68.36756 -0.390369,-98.8708 -1.273224,-107.36445 -0.843154,-8.1117 -0.905439,-11.99023 -0.196915,-12.26212 0.56997,-0.21872 18.360064,-0.27972 39.533541,-0.13555 l 38.497234,0.26212 0,13.75009 c 0,7.56255 0.0863,13.75005 0.1918,13.75 0.1055,-5e-5 2.8055,-2.29228 6,-5.09384 24.43672,-21.43086 51.72325,-30.13085 86.93836,-27.71926 31.86647,2.18227 55.4648,16.66206 67.32958,41.31301 8.4082,17.46938 9.03599,24.56939 9.06086,102.47377 0.0186,58.19108 0.69278,84.36266 2.57033,99.77623 l 0.63952,5.25 -41.74023,0 -41.74022,0 0.574,-2.87001 c 2.04686,-10.23429 2.77822,-38.16391 2.49106,-95.12999 l -0.31506,-62.5 -2.81095,-5.72425 c -10.13639,-20.64186 -39.59239,-22.13297 -64.53008,-3.2666 -6.66623,5.04326 -13.44715,12.60726 -20.14807,22.4748 l -4.0109,5.90631 0,53.90965 c 0,47.96244 0.73291,71.5851 2.58912,83.45009 l 0.58667,3.75 -41.606948,0 -41.60695,0 0.508984,-2.25 z"
       id="path3857"
       style="fill:#000000;display:inline"
       inkscape:connector-curvature="0" />
    <path
       d="m 1133.6003,481.70282 c 2.0444,-9.03767 2.5095,-39.57232 2.5188,-165.39405 0.01,-127.03522 -0.3893,-152.69604 -2.5187,-162.10595 l -0.5091,-2.25 41.4999,0 41.4999,0 -0.5429,4.75 c -0.2987,2.6125 -0.7892,5.65 -1.0902,6.75 -0.5188,1.89607 -2.1086,102.58098 -1.6323,103.3777 0.1242,0.20774 2.5583,-1.71942 5.4091,-4.28257 18.0069,-16.18973 40.6535,-25.58596 66.0115,-27.38868 43.5105,-3.09319 74.3862,11.25763 88.8428,41.29355 8.4082,17.46938 9.036,24.56939 9.0609,102.47377 0.019,58.19108 0.6928,84.36266 2.5703,99.77623 l 0.6395,5.25 -41.7402,0 -41.7402,0 0.574,-2.87001 c 2.0388,-10.19417 2.7715,-38.21203 2.4877,-95.12999 l -0.3117,-62.5 -2.3012,-5 c -4.4337,-9.63332 -11.1279,-14.5584 -22.4734,-16.53412 -20.8974,-3.63914 -45.0203,9.27071 -61.5523,32.94095 l -5.1731,7.40683 0,54.19795 c 0,48.21682 0.7311,71.86165 2.5891,83.73839 l 0.5867,3.75 -41.607,0 -41.6069,0 0.509,-2.25 z"
       id="path3049"
       style="fill:#000000;display:inline"
       inkscape:connector-curvature="0" />
  </g>
  <g
     transform="translate(-860.61033,-340.19016)"
     id="layer2"
     style="display:none" />
</svg>
