<?xml version="1.0" encoding="UTF-8" standalone="no"?>
<!-- Created with Inkscape (http://www.inkscape.org/) -->

<svg
   xmlns:dc="http://purl.org/dc/elements/1.1/"
   xmlns:cc="http://creativecommons.org/ns#"
   xmlns:rdf="http://www.w3.org/1999/02/22-rdf-syntax-ns#"
   xmlns:svg="http://www.w3.org/2000/svg"
   xmlns="http://www.w3.org/2000/svg"
   xmlns:sodipodi="http://sodipodi.sourceforge.net/DTD/sodipodi-0.dtd"
   xmlns:inkscape="http://www.inkscape.org/namespaces/inkscape"
   id="svg64"
   version="1.1"
   inkscape:version="0.48.2 r9819"
   width="660"
   height="656"
   sodipodi:docname="o.png">
  <metadata
     id="metadata70">
    <rdf:RDF>
      <cc:Work
         rdf:about="">
        <dc:format>image/svg+xml</dc:format>
        <dc:type
           rdf:resource="http://purl.org/dc/dcmitype/StillImage" />
        <dc:title></dc:title>
      </cc:Work>
    </rdf:RDF>
  </metadata>
  <defs
     id="defs68" />
  <sodipodi:namedview
     pagecolor="#ffffff"
     bordercolor="#666666"
     borderopacity="1"
     objecttolerance="10"
     gridtolerance="10"
     guidetolerance="10"
     inkscape:pageopacity="0"
     inkscape:pageshadow="2"
     inkscape:window-width="1440"
     inkscape:window-height="860"
     id="namedview66"
     showgrid="false"
     inkscape:zoom="1"
     inkscape:cx="179"
     inkscape:cy="328"
     inkscape:window-x="0"
     inkscape:window-y="0"
     inkscape:window-maximized="0"
     inkscape:current-layer="svg64" />
  <path
     style="fill:#cb4437;fill-opacity:1"
     d="M 318.5,656.28534 C 280.66549,655.47317 242.35742,649.24172 209,638.47334 95.86624,601.9517 22.63546,511.60629 5.56992,387.5 1.7662,359.83808 0.69604,319.91802 3.00981,292 11.47566,189.85055 55.44266,108.54183 129.5,58.08007 189.17318,17.419497 262.02253,-1.031615 350.25,2.169026 428.12236,4.994012 497.30293,28.695659 550,70.60449 c 11.56456,9.19704 34.0272,31.7851 43.3421,43.58409 37.4876,47.48487 59.7278,107.04184 65.6526,175.81142 1.3872,16.10117 1.3983,56.06751 0.02,71.5 -8.0982,90.66313 -43.86868,165.77799 -103.51448,217.3715 -61.49467,53.19278 -141.89671,79.45536 -237,77.41384 z m 36,-152.71068 C 409.20584,495.12888 445.34906,458.64057 461.03515,396.02235 468.80959,364.9871 470.28497,313.3696 464.39429,278.5 453.36484,213.21164 420.0101,169.62167 370.5,155.79331 c -23.33021,-6.51622 -55.25859,-6.45516 -78.80047,0.1507 -28.69175,8.05092 -52.11719,25.02868 -68.77357,49.84417 -8.64724,12.88307 -13.84306,23.71855 -19.43943,40.53942 -8.94244,26.87808 -11.94919,50.43587 -11.1899,87.6724 0.3325,16.30623 1.11571,29.28567 2.17233,36 12.22609,77.69104 50.28903,122.85014 112.53104,133.51042 10.16661,1.74125 36.40763,1.77674 47.5,0.0642 z"
     id="path74"
     inkscape:connector-curvature="0" />
</svg>
