<?xml version="1.0" encoding="UTF-8" standalone="no"?>
<!-- Created with Inkscape (http://www.inkscape.org/) -->

<svg
   xmlns:dc="http://purl.org/dc/elements/1.1/"
   xmlns:cc="http://creativecommons.org/ns#"
   xmlns:rdf="http://www.w3.org/1999/02/22-rdf-syntax-ns#"
   xmlns:svg="http://www.w3.org/2000/svg"
   xmlns="http://www.w3.org/2000/svg"
   xmlns:sodipodi="http://sodipodi.sourceforge.net/DTD/sodipodi-0.dtd"
   xmlns:inkscape="http://www.inkscape.org/namespaces/inkscape"
   version="1.1"
   width="689.09039"
   height="610.00861"
   id="svg165"
   inkscape:version="0.48.2 r9819"
   sodipodi:docname="x.svg">
  <sodipodi:namedview
     pagecolor="#ffffff"
     bordercolor="#666666"
     borderopacity="1"
     objecttolerance="10"
     gridtolerance="10"
     guidetolerance="10"
     inkscape:pageopacity="0"
     inkscape:pageshadow="2"
     inkscape:window-width="1440"
     inkscape:window-height="852"
     id="namedview3033"
     showgrid="false"
     showborder="true"
     fit-margin-top="0"
     fit-margin-left="0"
     fit-margin-right="0"
     fit-margin-bottom="0"
     inkscape:zoom="0.635"
     inkscape:cx="376.1101"
     inkscape:cy="428.98425"
     inkscape:window-x="0"
     inkscape:window-y="0"
     inkscape:window-maximized="1"
     inkscape:current-layer="svg165" />
  <metadata
     id="metadata171">
    <rdf:RDF>
      <cc:Work
         rdf:about="">
        <dc:format>image/svg+xml</dc:format>
        <dc:type
           rdf:resource="http://purl.org/dc/dcmitype/StillImage" />
        <dc:title />
      </cc:Work>
    </rdf:RDF>
  </metadata>
  <defs
     id="defs169" />
  <path
     d="m 8.39247,600.2586 c 11.68219,-13.57187 35.28623,-43.05866 47.8296,-59.75 5.78646,-7.7 48.64145,-67.66378 95.23331,-133.25285 L 236.16783,288.0029 164.49016,187.75575 C 90.8538,84.76921 82.86906,73.91432 46.42708,27.25433 L 25.14119,6e-5 138.14622,0.25433 251.15125,0.5086 l 5.82996,13.5 c 6.45126,14.93873 15.45704,33.28289 20.86472,42.5 5.76657,9.82884 67.50316,102.5 68.28446,102.5 0.91567,0 59.44449,-89.74466 68.31263,-104.74656 7.87145,-13.31587 17.48332,-32.22055 22.75438,-44.75344 l 3.7852,-9 L 552.97302,0.2543 664.9635,0 650.7868,17.76135 c -27.3376,34.2501 -56.8886,74.58622 -126.00425,171.99173 l -69.71098,98.24447 75.16253,106.25553 C 632.7497,539.17692 633.0519,539.59164 669.792,585.7586 l 19.2984,24.25 -115.79519,0 -115.7952,0 -11.15703,-22.25 C 440.20661,575.5211 430.83514,558.09129 425.51749,549.02568 414.46863,530.18944 346.19456,424.0086 345.13175,424.0086 c -1.09256,0 -71.30137,110.65434 -81.04582,127.73428 -4.7803,8.37886 -13.52533,24.91636 -19.43338,36.75 l -10.74193,21.51572 -116.95531,0 -116.95531,0 8.39247,-9.75 z"
     id="path175"
     style="fill:#000000"
     inkscape:connector-curvature="0" />
</svg>
