<?xml version="1.0" encoding="UTF-8" standalone="no"?>
<!-- Created with Inkscape (http://www.inkscape.org/) -->

<svg
   xmlns:dc="http://purl.org/dc/elements/1.1/"
   xmlns:cc="http://creativecommons.org/ns#"
   xmlns:rdf="http://www.w3.org/1999/02/22-rdf-syntax-ns#"
   xmlns:svg="http://www.w3.org/2000/svg"
   xmlns="http://www.w3.org/2000/svg"
   xmlns:sodipodi="http://sodipodi.sourceforge.net/DTD/sodipodi-0.dtd"
   xmlns:inkscape="http://www.inkscape.org/namespaces/inkscape"
   version="1.1"
   width="200"
   height="200"
   id="svg165"
   inkscape:version="0.48.2 r9819"
   sodipodi:docname="x.svg">
  <sodipodi:namedview
     pagecolor="#ffffff"
     bordercolor="#666666"
     borderopacity="1"
     objecttolerance="10"
     gridtolerance="10"
     guidetolerance="10"
     inkscape:pageopacity="0"
     inkscape:pageshadow="2"
     inkscape:window-width="1440"
     inkscape:window-height="852"
     id="namedview3033"
     showgrid="false"
     showborder="true"
     fit-margin-top="0"
     fit-margin-left="0"
     fit-margin-right="0"
     fit-margin-bottom="0"
     inkscape:zoom="3.175"
     inkscape:cx="61.259843"
     inkscape:cy="100"
     inkscape:window-x="0"
     inkscape:window-y="0"
     inkscape:window-maximized="1"
     inkscape:current-layer="svg165" />
  <metadata
     id="metadata171">
    <rdf:RDF>
      <cc:Work
         rdf:about="">
        <dc:format>image/svg+xml</dc:format>
        <dc:type
           rdf:resource="http://purl.org/dc/dcmitype/StillImage" />
        <dc:title></dc:title>
      </cc:Work>
    </rdf:RDF>
  </metadata>
  <defs
     id="defs169" />
  <path
     d="m 13.951449,175.57936 c 2.990413,-3.47415 9.032589,-11.02219 12.243447,-15.29485 1.481221,-1.97105 12.451265,-17.32061 24.377875,-34.11013 L 72.257509,95.647969 53.909421,69.986648 C 35.059946,43.624097 33.016007,40.845456 23.68757,28.901406 l -5.448775,-6.976562 28.927089,0.06509 28.927089,0.06509 1.492357,3.455738 c 1.651397,3.824024 3.956701,8.519772 5.340962,10.879173 1.476129,2.515992 17.279498,26.238005 17.479498,26.238005 0.2344,0 15.21662,-22.972887 17.48669,-26.813081 2.01494,-3.408603 4.47539,-8.247834 5.82468,-11.45601 l 0.96894,-2.303825 28.66736,-0.0651 28.66738,-0.06509 -3.62894,4.54656 c -6.9979,8.76736 -14.56239,19.092621 -32.25465,44.026537 l -17.84465,25.148675 19.24015,27.199344 c 26.24199,37.09769 26.31934,37.20384 35.72411,49.02169 l 4.94,6.20753 -29.6413,0 -29.64132,0 -2.85598,-5.69556 c -1.5708,-3.13256 -3.96972,-7.59426 -5.33093,-9.91489 -2.82828,-4.82171 -20.30513,-32.00193 -20.57719,-32.00193 -0.279658,0 -18.251751,28.32535 -20.746141,32.69748 -1.223663,2.14484 -3.462221,6.37811 -4.974566,9.40729 l -2.749725,5.50761 -29.938284,0 -29.938284,0 2.148309,-2.4958 z"
     id="path175"
     style="fill:#000000"
     inkscape:connector-curvature="0" />
</svg>
